<svg width="1200" height="1200" viewBox="0 0 1200 1200" fill="none" xmlns="http://www.w3.org/2000/svg">
  <rect width="1200" height="1200" rx="52" fill="#111827"/>
  <rect x="34" y="34" width="1132" height="1132" rx="42" fill="#F8FAFC"/>
  <rect x="96" y="126" width="1008" height="246" rx="28" fill="#E0F2FE"/>
  <rect x="96" y="420" width="1008" height="564" rx="28" fill="#FEE2E2"/>
  <rect x="156" y="192" width="258" height="144" rx="24" fill="#1D4ED8"/>
  <rect x="462" y="192" width="210" height="144" rx="24" fill="#0F766E"/>
  <rect x="720" y="192" width="322" height="144" rx="24" fill="#F59E0B"/>
  <rect x="168" y="482" width="864" height="74" rx="24" fill="#FB7185"/>
  <rect x="168" y="598" width="764" height="74" rx="24" fill="#FDBA74"/>
  <rect x="168" y="714" width="664" height="74" rx="24" fill="#34D399"/>
  <rect x="168" y="830" width="564" height="74" rx="24" fill="#60A5FA"/>
  <circle cx="960" cy="770" r="118" fill="#111827"/>
  <circle cx="960" cy="770" r="76" fill="#F8FAFC"/>
  <circle cx="960" cy="770" r="38" fill="#111827"/>
  <path d="M842 620L1028 512L1047 654L842 620Z" fill="#111827" fill-opacity="0.12"/>
  <path d="M858 926L1028 1092L1084 986L858 926Z" fill="#111827" fill-opacity="0.1"/>
</svg>
