<svg xmlns="http://www.w3.org/2000/svg" width="1600" height="900" viewBox="0 0 1600 900" fill="none">
  <rect width="1600" height="900" fill="#F8FAFC"/>
  <rect x="96" y="92" width="1408" height="716" rx="34" fill="#FFFFFF"/>
  <rect x="170" y="170" width="480" height="520" rx="30" fill="#0F8B8D" opacity=".1"/>
  <rect x="230" y="230" width="360" height="280" rx="24" fill="#0F8B8D" opacity=".22"/>
  <circle cx="400" cy="330" r="70" fill="#FFFFFF"/>
  <path d="M360 400L420 340L470 390L520 320L590 430H290L360 400Z" fill="#FFFFFF"/>
  <rect x="760" y="190" width="540" height="48" rx="14" fill="#0F172A" opacity=".16"/>
  <rect x="760" y="268" width="640" height="28" rx="10" fill="#0F172A" opacity=".1"/>
  <rect x="760" y="316" width="560" height="28" rx="10" fill="#0F172A" opacity=".1"/>
  <rect x="760" y="420" width="540" height="170" rx="28" fill="#0F172A" opacity=".05"/>
  <rect x="810" y="470" width="180" height="24" rx="8" fill="#0F8B8D" opacity=".35"/>
  <rect x="1010" y="470" width="180" height="24" rx="8" fill="#F59E0B" opacity=".28"/>
  <rect x="1210" y="470" width="120" height="24" rx="8" fill="#0F172A" opacity=".12"/>
</svg>
