<svg xmlns="http://www.w3.org/2000/svg" width="1600" height="900" viewBox="0 0 1600 900" fill="none">
  <rect width="1600" height="900" fill="#F7FAFC"/>
  <rect x="110" y="100" width="1380" height="700" rx="36" fill="#FFFFFF"/>
  <rect x="180" y="170" width="360" height="360" rx="28" fill="#0F172A"/>
  <rect x="230" y="220" width="80" height="80" rx="10" fill="#FFFFFF"/>
  <rect x="410" y="220" width="80" height="80" rx="10" fill="#FFFFFF"/>
  <rect x="230" y="400" width="80" height="80" rx="10" fill="#FFFFFF"/>
  <path d="M345 285H375V315H345V285ZM345 335H375V365H345V335ZM395 335H425V365H395V335ZM345 385H375V415H345V385ZM395 385H425V415H395V385Z" fill="#FFFFFF"/>
  <rect x="620" y="190" width="540" height="52" rx="16" fill="#0F172A" opacity=".14"/>
  <rect x="620" y="270" width="700" height="30" rx="10" fill="#0F172A" opacity=".1"/>
  <rect x="620" y="320" width="650" height="30" rx="10" fill="#0F172A" opacity=".1"/>
  <rect x="620" y="370" width="540" height="30" rx="10" fill="#0F172A" opacity=".1"/>
  <rect x="620" y="470" width="220" height="70" rx="22" fill="#0F8B8D"/>
  <rect x="860" y="470" width="220" height="70" rx="22" fill="#F59E0B" opacity=".18"/>
</svg>
